<mxfile host="app.diagrams.net" modified="2024-03-20T16:47:03.266Z" agent="Mozilla/5.0 (Windows NT 10.0; Win64; x64) AppleWebKit/537.36 (KHTML, like Gecko) Chrome/122.0.0.0 Safari/537.36" etag="9ZSlAXuQ0OPwzc9v6wsP" version="24.0.6" type="device">
  <diagram name="Página-1" id="M_cFVcWnYhVOC2RUs5qB">
    <mxGraphModel dx="1034" dy="446" grid="1" gridSize="10" guides="1" tooltips="1" connect="1" arrows="1" fold="1" page="1" pageScale="1" pageWidth="827" pageHeight="1169" math="0" shadow="0">
      <root>
        <mxCell id="0" />
        <mxCell id="1" parent="0" />
        <mxCell id="db9UODNpozLDeL6K_zc3-1" value="" style="ellipse;whiteSpace=wrap;html=1;aspect=fixed;" vertex="1" parent="1">
          <mxGeometry x="50" y="130" width="10" height="10" as="geometry" />
        </mxCell>
        <mxCell id="db9UODNpozLDeL6K_zc3-2" value="" style="ellipse;whiteSpace=wrap;html=1;aspect=fixed;" vertex="1" parent="1">
          <mxGeometry x="80" y="130" width="10" height="10" as="geometry" />
        </mxCell>
        <mxCell id="db9UODNpozLDeL6K_zc3-3" value="" style="ellipse;whiteSpace=wrap;html=1;aspect=fixed;" vertex="1" parent="1">
          <mxGeometry x="270" y="130" width="10" height="10" as="geometry" />
        </mxCell>
        <mxCell id="db9UODNpozLDeL6K_zc3-4" value="" style="ellipse;whiteSpace=wrap;html=1;aspect=fixed;" vertex="1" parent="1">
          <mxGeometry x="370" y="265" width="10" height="10" as="geometry" />
        </mxCell>
        <mxCell id="db9UODNpozLDeL6K_zc3-5" value="" style="ellipse;whiteSpace=wrap;html=1;aspect=fixed;" vertex="1" parent="1">
          <mxGeometry x="385" y="280" width="10" height="10" as="geometry" />
        </mxCell>
        <mxCell id="db9UODNpozLDeL6K_zc3-6" value="" style="ellipse;whiteSpace=wrap;html=1;aspect=fixed;" vertex="1" parent="1">
          <mxGeometry x="20" y="130" width="10" height="10" as="geometry" />
        </mxCell>
        <mxCell id="db9UODNpozLDeL6K_zc3-7" value="" style="ellipse;whiteSpace=wrap;html=1;aspect=fixed;" vertex="1" parent="1">
          <mxGeometry x="520" y="150" as="geometry" />
        </mxCell>
        <mxCell id="db9UODNpozLDeL6K_zc3-8" value="" style="ellipse;whiteSpace=wrap;html=1;aspect=fixed;" vertex="1" parent="1">
          <mxGeometry x="500" y="260" width="10" height="10" as="geometry" />
        </mxCell>
        <mxCell id="db9UODNpozLDeL6K_zc3-9" value="" style="ellipse;whiteSpace=wrap;html=1;aspect=fixed;" vertex="1" parent="1">
          <mxGeometry x="510" y="270" width="10" height="10" as="geometry" />
        </mxCell>
        <mxCell id="db9UODNpozLDeL6K_zc3-10" value="AUTOR" style="rounded=0;whiteSpace=wrap;html=1;" vertex="1" parent="1">
          <mxGeometry x="240" y="60" width="120" height="60" as="geometry" />
        </mxCell>
        <mxCell id="db9UODNpozLDeL6K_zc3-11" value="LIVRO" style="rounded=0;whiteSpace=wrap;html=1;" vertex="1" parent="1">
          <mxGeometry y="60" width="120" height="60" as="geometry" />
        </mxCell>
        <mxCell id="db9UODNpozLDeL6K_zc3-12" value="EDITORA" style="rounded=0;whiteSpace=wrap;html=1;" vertex="1" parent="1">
          <mxGeometry x="500" y="60" width="120" height="60" as="geometry" />
        </mxCell>
        <mxCell id="db9UODNpozLDeL6K_zc3-13" value="" style="rounded=0;whiteSpace=wrap;html=1;" vertex="1" parent="1">
          <mxGeometry y="300" width="120" height="60" as="geometry" />
        </mxCell>
        <mxCell id="db9UODNpozLDeL6K_zc3-14" value="" style="rounded=0;whiteSpace=wrap;html=1;" vertex="1" parent="1">
          <mxGeometry y="350" width="120" height="60" as="geometry" />
        </mxCell>
        <mxCell id="db9UODNpozLDeL6K_zc3-23" value="" style="rhombus;whiteSpace=wrap;html=1;" vertex="1" parent="1">
          <mxGeometry x="140" y="60" width="80" height="60" as="geometry" />
        </mxCell>
        <mxCell id="db9UODNpozLDeL6K_zc3-24" value="" style="rhombus;whiteSpace=wrap;html=1;" vertex="1" parent="1">
          <mxGeometry x="140" y="350" width="80" height="80" as="geometry" />
        </mxCell>
        <mxCell id="db9UODNpozLDeL6K_zc3-25" value="" style="rhombus;whiteSpace=wrap;html=1;" vertex="1" parent="1">
          <mxGeometry x="385" y="60" width="80" height="60" as="geometry" />
        </mxCell>
        <mxCell id="db9UODNpozLDeL6K_zc3-31" value="" style="endArrow=none;html=1;rounded=0;" edge="1" parent="1">
          <mxGeometry width="50" height="50" relative="1" as="geometry">
            <mxPoint x="390" y="260" as="sourcePoint" />
            <mxPoint x="410" y="200" as="targetPoint" />
          </mxGeometry>
        </mxCell>
        <mxCell id="db9UODNpozLDeL6K_zc3-33" value="Título" style="text;html=1;align=center;verticalAlign=middle;whiteSpace=wrap;rounded=0;rotation=90;" vertex="1" parent="1">
          <mxGeometry x="-5" y="150" width="60" height="30" as="geometry" />
        </mxCell>
        <mxCell id="db9UODNpozLDeL6K_zc3-34" value="ISBN" style="text;html=1;align=center;verticalAlign=middle;whiteSpace=wrap;rounded=0;rotation=90;" vertex="1" parent="1">
          <mxGeometry x="25" y="155" width="60" height="20" as="geometry" />
        </mxCell>
        <mxCell id="db9UODNpozLDeL6K_zc3-35" value="Ano_Pub" style="text;html=1;align=center;verticalAlign=middle;whiteSpace=wrap;rounded=0;rotation=90;" vertex="1" parent="1">
          <mxGeometry x="55" y="160" width="60" height="20" as="geometry" />
        </mxCell>
        <mxCell id="db9UODNpozLDeL6K_zc3-36" value="Nome_Autor&lt;div&gt;&lt;br&gt;&lt;/div&gt;" style="text;html=1;align=center;verticalAlign=middle;whiteSpace=wrap;rounded=0;rotation=90;" vertex="1" parent="1">
          <mxGeometry x="240" y="180" width="60" as="geometry" />
        </mxCell>
      </root>
    </mxGraphModel>
  </diagram>
</mxfile>
